<?xml version="1.0" encoding="UTF-8"?>
<svg xmlns="http://www.w3.org/2000/svg" viewBox="0 0 178 178" width="178" height="178">
  <!-- Optimized viewBox for better display as square logo -->
  <g transform="translate(0, -143)">
    <!-- Original content with transform to center it -->
    <path d="m 162.7038,183.7 c -18.998,-18.427 -44.885,-29.791 -73.379997,-29.791 -28.491,0 -54.375,11.364 -73.371,29.791 H -193.6692 L 89.330803,464.655 372.3308,183.7 h -209.627 z" style="fill:#de9500"/>
    <path d="m 89.323803,163.746 c 52.720997,0 95.628997,42.895 95.628997,95.627 0,52.729 -42.908,95.617 -95.628997,95.617 -52.722,0 -95.6149999,-42.889 -95.6149999,-95.617 0,-52.733 42.8929999,-95.627 95.6149999,-95.627" style="fill:#ffffff"/>
    <path d="m 45.157803,240.825 h 7.905 v -11.992 h -7.905 v -14.436 h 23.166 v 39.5 h -23.166 v -13.072 m 0,52.037 h 7.905 v -11.979 h -7.905 V 268.07 h 23.166 v 38.436 h -23.166 V 292.862 z M 110.0158,306.505 H 81.952803 v -38.436 h 5.462 v 4.098 h 7.898 v -4.098 H 106.4898 c 3.09,0 3.525,5.511 3.525,5.511 v 32.925 z m 0,-60.673 -0.043,1.802 c 0,0 -0.692,6.174 -4.712,6.264 h -9.946997 v -5.17 h -7.898 v 5.17 h -5.462 v -39.5 H 110.0168 v 31.434 z m 34.525,48.127 c -0.711,2.069 -4.394,12.437 -8.353,12.437 -0.203,0 -0.327,0.079 -0.46,0.11 h -13.454 v -33.521 h -0.077 c -0.183,-2.226 -1.133,-4.617 -1.275,-4.915 h 13.946 c 1.1,0.108 10.232,3.678 10.271,14.993 h -8.95 v 10.896 h 8.352 z m 0.62,-53.403 v 0.014 c 0,0 -4.906,13.314 -9.202,13.314 l -0.292,0.013 h -15.226 c 0.222,-0.436 1.833,-3.497 1.833,-6.264 v -33.237 h 13 c 0.232,0.077 9.887,3.483 9.887,15.25 h -8.973 v 10.909 h 8.973 z m 21.013,-10.909 h -8.122 c 0,-0.088 -1.686,-21.547 -17.79,-28.603 h -17.329 v -0.428 c 0,-17.375 -12.736,-20.943 -22.016,-20.943 -9.270997,0 -13.585997,3.882 -13.585997,3.882 v 12.529 c 0,0 0.22,-4.414 12.221,-4.414 13.369997,0 10.743997,9.366 10.743997,9.366 v 0.007 H 81.952803 v -7.645 c 0,-12.961 -6.558,-16.361 -14.223,-16.361 l -5.396,0.017 v 13.9 h 3.261 c 2.175,0 2.632,1.622 2.729,2.744 v 7.344 h -43.599 v 13.352 h 9.551 v 14.436 h -9.551 v 11.992 h 9.551 v 13.072 h -9.551 v 14.173 h 9.551 v 12.813 h -9.551 v 11.979 h 9.551 v 13.644 h -9.551 v 11.992 h 42.922 v 3.4 c 0,2.318 -2.052,2.038 -2.052,2.038 h -4.333 v 13.901 h 8.695 c 3.575,0 11.726,-3.699 11.726,-12.818 v -4.893 l 0.014,-1.629 H 110.1098 c 0,6.344 -3.322,9.356 -12.036997,9.356 -8.711,0 -11.161,-4.204 -11.161,-4.204 v 12.635 c 2.587,2.882 13.231997,3.701 13.231997,3.701 21.633,0 22.27,-18.088 22.188,-21.488 h 19.285 c 0,0 13.689,-5.769 15.501,-24.539 h 9.055 v -10.896 h -8.458 c -0.019,-0.792 -0.436,-18.261 -9.652,-23.258 0,0 8.857,-5.01 8.937,-19.235 l -0.063,-0.014 h 9.237 v -10.905 z" style="fill:#00954c"/>
  </g>
</svg>
