<svg width="400" height="400" viewBox="0 0 400 400" xmlns="http://www.w3.org/2000/svg">
  <!-- Background -->
  <rect width="400" height="400" fill="#f8f9fa"/>
  
  <!-- Keychain Ring -->
  <circle cx="100" cy="100" r="30" fill="none" stroke="#666666" stroke-width="6"/>
  <circle cx="100" cy="100" r="20" fill="none" stroke="#666666" stroke-width="3"/>
  
  <!-- Chain Link -->
  <rect x="85" y="130" width="30" height="15" rx="7" fill="none" stroke="#666666" stroke-width="3"/>
  
  <!-- Main Keychain Body (Shield Shape) -->
  <path d="M 130 150 L 200 150 Q 230 150 250 180 L 250 250 Q 250 280 200 300 L 160 300 Q 130 280 130 250 Z" 
        fill="#00A651" stroke="#FFFFFF" stroke-width="4"/>
  
  <!-- Betis Shield Design -->
  <circle cx="190" cy="200" r="25" fill="#FFFFFF"/>
  <text x="190" y="210" text-anchor="middle" font-family="Arial, sans-serif" font-size="18" font-weight="bold" fill="#00A651">RBB</text>
  
  <!-- Scottish Flag Elements -->
  <path d="M 140 160 L 160 180 M 160 160 L 140 180" stroke="#FFFFFF" stroke-width="3"/>
  <path d="M 220 160 L 240 180 M 240 160 L 220 180" stroke="#FFFFFF" stroke-width="3"/>
  
  <!-- Text -->
  <text x="200" y="350" text-anchor="middle" font-family="Arial, sans-serif" font-size="16" font-weight="bold" fill="#00A651">LLAVERO BÉTICO</text>
  <text x="200" y="370" text-anchor="middle" font-family="Arial, sans-serif" font-size="12" fill="#666">Betis + Escocia</text>
</svg>
